<svg width="116" height="97" viewBox="0 0 116 97" fill="none" xmlns="http://www.w3.org/2000/svg">
<path d="M2.8151 93.7306C2.8151 80.5897 2.79168 67.4487 2.8151 54.3077C2.82792 47.1092 2.83548 39.9106 2.89096 32.7123C2.91122 30.0828 2.70234 11.2517 3.97831 5.64222C4.20642 4.6394 4.77372 3.07096 5.799 3.15141C7.39909 3.27698 8.45896 4.97384 9.61739 6.08475C11.757 8.13656 13.7992 10.3021 15.6611 12.6089C24.6546 23.7518 32.0611 36.1507 39.0771 48.5928C43.3634 56.194 43.8476 57.4371 47.4599 64.3088C49.0339 67.3032 50.5478 70.4005 52.8587 72.9192C53.2031 73.2945 55.918 76.4564 56.93 75.5364C57.684 74.8509 57.2243 72.0156 57.3093 71.1743C57.3534 70.7381 57.6099 68.4315 58.2196 68.0387C60.2836 66.7092 65.5695 72.9295 66.0081 73.3491C70.8547 77.9849 75.5313 83.1075 81.0288 87.0042C83.9954 89.107 87.5661 91.1253 90.6633 88.1421C94.4123 84.5312 92.2319 78.5574 95.6702 75.018C100.884 69.6512 108.854 76.4822 113.194 79.6203" stroke="white" stroke-width="5" stroke-linecap="round"/>
</svg>
